<svg width="501" height="646" viewBox="0 0 501 646" fill="none" xmlns="http://www.w3.org/2000/svg">
<path d="M46.6689 644.126C41.8142 647.408 35.1089 646.271 31.7026 641.568L15.5026 616.114H65.4973L49.2974 641.568C48.6 642.549 47.6881 643.428 46.6689 644.126Z" fill="white"/>
<path fill-rule="evenodd" clip-rule="evenodd" d="M20.25 572.235L0 591.745V73.22C0 70.3516 2.41391 68 5.39106 68H75.6358C78.6129 68 81 70.3257 81 73.1683V591.745L60.75 572.235L40.5 591.745L20.25 572.235ZM39 113L39 552H45L45 113H39Z" fill="white"/>
<path d="M243.462 93.2677C235.606 93.2677 229.141 86.9576 229.141 79.0315C229.141 71.1824 235.606 64.7697 243.462 64.7697C251.343 64.7697 257.782 71.1055 257.782 79.0315C257.782 86.855 251.343 93.2677 243.462 93.2677ZM243.462 143.056C235.606 143.056 229.141 136.746 229.141 128.82C229.141 120.97 235.606 114.558 243.462 114.558C251.343 114.558 257.782 120.894 257.782 128.82C257.782 136.643 251.343 143.056 243.462 143.056ZM186.231 100.399C178.375 100.399 171.91 94.0885 171.91 86.1624C171.91 78.3133 178.375 71.9006 186.231 71.9006C194.112 71.9006 200.526 78.2364 200.526 86.1624C200.526 93.9859 194.112 100.399 186.231 100.399ZM186.231 150.11C178.375 150.11 171.91 143.774 171.91 135.848C171.91 128.024 178.375 121.586 186.231 121.586C194.112 121.586 200.526 127.922 200.526 135.848C200.526 143.774 194.112 150.11 186.231 150.11ZM319.829 108.786C366.165 122.663 406.938 134.591 501 90.8822V63.4359C501 41.0941 477.047 29.5256 456.828 39.7603C303.654 117.508 316.249 -19.3903 129 64.8723V200.154C213.79 166.757 267.26 179.942 318.67 193.383C369.823 206.747 418.554 218.931 501 183.507V122.125C453.093 143.056 417.575 150.11 388.238 150.11C358.902 150.11 335.489 143.158 311.613 135.951C308.033 134.873 304.35 133.796 300.795 132.821V103.246C307.234 105.041 313.571 106.914 319.829 108.786ZM311.33 220.906C260.177 207.439 211.446 195.255 129 230.781V285.546C213.79 252.071 267.26 265.333 318.67 278.774C369.823 292.24 418.554 304.425 501 268.898V214.134C462.005 229.524 429.294 235.604 400.756 235.604C367.324 235.604 339.147 228.191 311.33 220.906ZM311.33 306.4C260.177 292.959 211.446 280.749 129 316.275V377.991C295.052 295.883 327.247 425.47 484.464 357.419C494.664 352.981 501 342.721 501 331.768V299.705C462.005 315.121 429.294 321.174 400.756 321.174C367.324 321.098 339.147 313.71 311.33 306.4Z" fill="white"/>
<path d="M59.5966 0.0248804L21.4838 0C9.6288 0.0248788 0.0268195 8.93206 0 19.9292V46.999C0 49.7608 2.38708 51.9751 5.36423 52H75.6089C78.586 52 80.9999 49.7608 80.9999 47.0239V19.9292C81.0268 8.95694 71.4516 0.0497592 59.5966 0.0248804Z" fill="white"/>
</svg>
